<svg xmlns="http://www.w3.org/2000/svg" xmlns:xlink="http://www.w3.org/1999/xlink" width="500" zoomAndPan="magnify" viewBox="0 0 375 112.499997" height="150" preserveAspectRatio="xMidYMid meet" version="1.0"><defs><g/><clipPath id="3df4313d10"><path d="M 38.585938 28.710938 L 83 28.710938 L 83 59.828125 L 38.585938 59.828125 Z M 38.585938 28.710938 " clip-rule="nonzero"/></clipPath><clipPath id="ca328c5367"><path d="M 82.964844 44.269531 L 62.433594 28.710938 L 62.433594 38.980469 L 38.585938 38.980469 L 38.585938 49.5625 L 62.433594 49.5625 L 62.433594 59.828125 Z M 82.964844 44.269531 " clip-rule="nonzero"/></clipPath></defs><g fill="#000000" fill-opacity="1"><g transform="translate(99.565538, 68.465899)"><g><path d="M 32.84375 -18.484375 L 15.03125 -18.484375 L 15.03125 0 L 2.984375 0 L 2.984375 -46.203125 L 15.03125 -46.203125 L 15.03125 -27.59375 L 32.84375 -27.59375 L 32.84375 -46.203125 L 44.875 -46.203125 L 44.875 0 L 32.84375 0 Z M 32.84375 -18.484375 "/></g></g></g><g fill="#000000" fill-opacity="1"><g transform="translate(147.430427, 68.465899)"><g><path d="M 22.734375 1.265625 C 18.703125 1.265625 15.101562 0.4375 11.9375 -1.21875 C 8.769531 -2.882812 6.285156 -5.144531 4.484375 -8 C 2.691406 -10.863281 1.816406 -14.003906 1.859375 -17.421875 C 1.898438 -20.878906 2.84375 -24.023438 4.6875 -26.859375 C 6.53125 -29.691406 9.054688 -31.925781 12.265625 -33.5625 C 15.484375 -35.207031 19.082031 -36.03125 23.0625 -36.03125 C 27.226562 -36.03125 30.894531 -35.207031 34.0625 -33.5625 C 37.238281 -31.925781 39.691406 -29.703125 41.421875 -26.890625 C 43.148438 -24.078125 44.015625 -20.941406 44.015625 -17.484375 C 43.972656 -14.023438 43.03125 -10.863281 41.1875 -8 C 39.34375 -5.144531 36.8125 -2.882812 33.59375 -1.21875 C 30.382812 0.4375 26.765625 1.265625 22.734375 1.265625 Z M 22.609375 -7.90625 C 24.460938 -7.90625 26.128906 -8.328125 27.609375 -9.171875 C 29.097656 -10.015625 30.265625 -11.15625 31.109375 -12.59375 C 31.953125 -14.039062 32.375 -15.648438 32.375 -17.421875 C 32.414062 -19.234375 32.070312 -20.859375 31.34375 -22.296875 C 30.613281 -23.742188 29.539062 -24.875 28.125 -25.6875 C 26.707031 -26.507812 25.046875 -26.921875 23.140625 -26.921875 C 21.273438 -26.921875 19.597656 -26.5 18.109375 -25.65625 C 16.628906 -24.820312 15.46875 -23.679688 14.625 -22.234375 C 13.78125 -20.796875 13.316406 -19.210938 13.234375 -17.484375 C 13.179688 -15.710938 13.539062 -14.09375 14.3125 -12.625 C 15.09375 -11.164062 16.203125 -10.015625 17.640625 -9.171875 C 19.085938 -8.328125 20.742188 -7.90625 22.609375 -7.90625 Z M 22.609375 -7.90625 "/></g></g></g><g fill="#000000" fill-opacity="1"><g transform="translate(193.035071, 68.465899)"><g><path d="M 27.65625 1.265625 C 24.507812 1.265625 21.679688 0.4375 19.171875 -1.21875 C 16.671875 -2.882812 14.734375 -5.132812 13.359375 -7.96875 C 11.984375 -10.8125 11.320312 -13.941406 11.375 -17.359375 C 11.375 -20.765625 12.132812 -23.894531 13.65625 -26.75 C 15.1875 -29.613281 17.269531 -31.875 19.90625 -33.53125 C 22.550781 -35.195312 25.445312 -36.03125 28.59375 -36.03125 C 31.695312 -36.03125 34.5 -35.222656 37 -33.609375 C 39.5 -31.992188 41.457031 -29.753906 42.875 -26.890625 C 44.300781 -24.035156 45.015625 -20.859375 45.015625 -17.359375 C 45.015625 -13.941406 44.226562 -10.8125 42.65625 -7.96875 C 41.082031 -5.132812 38.960938 -2.882812 36.296875 -1.21875 C 33.640625 0.4375 30.757812 1.265625 27.65625 1.265625 Z M 2.859375 -34.765625 L 14.890625 -34.765625 L 14.890625 14.828125 L 2.921875 14.828125 Z M 24 -6.984375 C 25.769531 -6.984375 27.394531 -7.4375 28.875 -8.34375 C 30.363281 -9.25 31.539062 -10.5 32.40625 -12.09375 C 33.269531 -13.695312 33.703125 -15.492188 33.703125 -17.484375 C 33.703125 -19.429688 33.3125 -21.179688 32.53125 -22.734375 C 31.757812 -24.285156 30.695312 -25.503906 29.34375 -26.390625 C 28 -27.273438 26.460938 -27.71875 24.734375 -27.71875 C 23.003906 -27.71875 21.382812 -27.265625 19.875 -26.359375 C 18.375 -25.453125 17.164062 -24.210938 16.25 -22.640625 C 15.34375 -21.066406 14.890625 -19.328125 14.890625 -17.421875 C 14.890625 -15.472656 15.273438 -13.695312 16.046875 -12.09375 C 16.828125 -10.5 17.925781 -9.25 19.34375 -8.34375 C 20.757812 -7.4375 22.3125 -6.984375 24 -6.984375 Z M 24 -6.984375 "/></g></g></g><g fill="#000000" fill-opacity="1"><g transform="translate(240.301662, 68.465899)"><g><path d="M 27.65625 1.265625 C 24.507812 1.265625 21.679688 0.4375 19.171875 -1.21875 C 16.671875 -2.882812 14.734375 -5.132812 13.359375 -7.96875 C 11.984375 -10.8125 11.320312 -13.941406 11.375 -17.359375 C 11.375 -20.765625 12.132812 -23.894531 13.65625 -26.75 C 15.1875 -29.613281 17.269531 -31.875 19.90625 -33.53125 C 22.550781 -35.195312 25.445312 -36.03125 28.59375 -36.03125 C 31.695312 -36.03125 34.5 -35.222656 37 -33.609375 C 39.5 -31.992188 41.457031 -29.753906 42.875 -26.890625 C 44.300781 -24.035156 45.015625 -20.859375 45.015625 -17.359375 C 45.015625 -13.941406 44.226562 -10.8125 42.65625 -7.96875 C 41.082031 -5.132812 38.960938 -2.882812 36.296875 -1.21875 C 33.640625 0.4375 30.757812 1.265625 27.65625 1.265625 Z M 2.859375 -34.765625 L 14.890625 -34.765625 L 14.890625 14.828125 L 2.921875 14.828125 Z M 24 -6.984375 C 25.769531 -6.984375 27.394531 -7.4375 28.875 -8.34375 C 30.363281 -9.25 31.539062 -10.5 32.40625 -12.09375 C 33.269531 -13.695312 33.703125 -15.492188 33.703125 -17.484375 C 33.703125 -19.429688 33.3125 -21.179688 32.53125 -22.734375 C 31.757812 -24.285156 30.695312 -25.503906 29.34375 -26.390625 C 28 -27.273438 26.460938 -27.71875 24.734375 -27.71875 C 23.003906 -27.71875 21.382812 -27.265625 19.875 -26.359375 C 18.375 -25.453125 17.164062 -24.210938 16.25 -22.640625 C 15.34375 -21.066406 14.890625 -19.328125 14.890625 -17.421875 C 14.890625 -15.472656 15.273438 -13.695312 16.046875 -12.09375 C 16.828125 -10.5 17.925781 -9.25 19.34375 -8.34375 C 20.757812 -7.4375 22.3125 -6.984375 24 -6.984375 Z M 24 -6.984375 "/></g></g></g><g fill="#000000" fill-opacity="1"><g transform="translate(287.568252, 68.465899)"><g><path d="M 22.40625 1.265625 C 18.101562 1.265625 14.378906 0.46875 11.234375 -1.125 C 8.085938 -2.726562 5.671875 -4.9375 3.984375 -7.75 C 2.304688 -10.5625 1.488281 -13.785156 1.53125 -17.421875 C 1.570312 -20.785156 2.457031 -23.882812 4.1875 -26.71875 C 5.914062 -29.5625 8.34375 -31.820312 11.46875 -33.5 C 14.59375 -35.1875 18.191406 -36.03125 22.265625 -36.03125 C 26.390625 -36.03125 29.992188 -35.164062 33.078125 -33.4375 C 36.160156 -31.707031 38.5 -29.410156 40.09375 -26.546875 C 41.6875 -23.691406 42.460938 -20.628906 42.421875 -17.359375 C 42.285156 -15.804688 42.148438 -14.738281 42.015625 -14.15625 L 13.09375 -14.15625 C 13.320312 -12.207031 14.3125 -10.625 16.0625 -9.40625 C 17.8125 -8.1875 20.035156 -7.578125 22.734375 -7.578125 C 24.554688 -7.578125 26.273438 -7.921875 27.890625 -8.609375 C 29.503906 -9.296875 30.753906 -10.148438 31.640625 -11.171875 L 40.21875 -6.109375 C 38.226562 -3.898438 35.671875 -2.117188 32.546875 -0.765625 C 29.421875 0.585938 26.039062 1.265625 22.40625 1.265625 Z M 30.84375 -20.609375 C 30.757812 -21.765625 30.382812 -22.863281 29.71875 -23.90625 C 29.050781 -24.945312 28.109375 -25.765625 26.890625 -26.359375 C 25.671875 -26.960938 24.21875 -27.265625 22.53125 -27.265625 C 20.09375 -27.265625 18.066406 -26.664062 16.453125 -25.46875 C 14.835938 -24.269531 13.785156 -22.648438 13.296875 -20.609375 Z M 30.84375 -20.609375 "/></g></g></g><g fill="#000000" fill-opacity="1"><g transform="translate(331.643834, 68.465899)"><g><path d="M 11.96875 -15.6875 C 12.050781 -19.769531 12.867188 -23.359375 14.421875 -26.453125 C 15.972656 -29.554688 17.957031 -31.925781 20.375 -33.5625 C 22.789062 -35.207031 25.328125 -36.03125 27.984375 -36.03125 C 30.597656 -36.03125 32.847656 -35.410156 34.734375 -34.171875 C 36.617188 -32.929688 38.070312 -31.046875 39.09375 -28.515625 C 40.113281 -25.992188 40.578125 -22.867188 40.484375 -19.140625 L 28.453125 -19.140625 C 28.492188 -21.535156 28.050781 -23.421875 27.125 -24.796875 C 26.195312 -26.171875 24.867188 -26.859375 23.140625 -26.859375 C 21.671875 -26.859375 20.359375 -26.414062 19.203125 -25.53125 C 18.054688 -24.644531 17.140625 -23.359375 16.453125 -21.671875 C 15.765625 -19.984375 15.398438 -17.988281 15.359375 -15.6875 Z M 3.328125 -34.765625 L 15.359375 -34.765625 L 15.359375 0 L 3.328125 0 Z M 3.328125 -34.765625 "/></g></g></g><g clip-path="url(#3df4313d10)"><g clip-path="url(#ca328c5367)"><path fill="#fd287f" d="M 38.585938 28.710938 L 82.949219 28.710938 L 82.949219 59.828125 L 38.585938 59.828125 Z M 38.585938 28.710938 " fill-opacity="1" fill-rule="nonzero"/></g></g><g fill="#000000" fill-opacity="1"><g transform="translate(1.988058, 68.465899)"><g><path d="M 4.125 -46.203125 L 16.15625 -46.203125 L 16.15625 0 L 4.125 0 Z M 4.125 -46.203125 "/></g></g></g></svg>