<svg xmlns="http://www.w3.org/2000/svg" xmlns:xlink="http://www.w3.org/1999/xlink" width="500" zoomAndPan="magnify" viewBox="0 0 375 112.499997" height="150" preserveAspectRatio="xMidYMid meet" version="1.0"><defs><g/><clipPath id="65f79b921d"><path d="M 25.582031 39.625 L 51.714844 39.625 L 51.714844 57.902344 L 25.582031 57.902344 Z M 25.582031 39.625 " clip-rule="nonzero"/></clipPath><clipPath id="0a19fe69fc"><path d="M 51.652344 48.765625 L 39.59375 39.625 L 39.59375 45.65625 L 25.582031 45.65625 L 25.582031 51.871094 L 39.59375 51.871094 L 39.59375 57.902344 Z M 51.652344 48.765625 " clip-rule="nonzero"/></clipPath></defs><g fill="#000000" fill-opacity="1"><g transform="translate(61.405817, 64.773616)"><g><path d="M 19.296875 -10.859375 L 8.828125 -10.859375 L 8.828125 0 L 1.75 0 L 1.75 -27.140625 L 8.828125 -27.140625 L 8.828125 -16.203125 L 19.296875 -16.203125 L 19.296875 -27.140625 L 26.359375 -27.140625 L 26.359375 0 L 19.296875 0 Z M 19.296875 -10.859375 "/></g></g></g><g fill="#000000" fill-opacity="1"><g transform="translate(89.517922, 64.773616)"><g><path d="M 13.359375 0.734375 C 10.984375 0.734375 8.863281 0.25 7 -0.71875 C 5.144531 -1.695312 3.6875 -3.023438 2.625 -4.703125 C 1.570312 -6.378906 1.0625 -8.222656 1.09375 -10.234375 C 1.113281 -12.265625 1.664062 -14.113281 2.75 -15.78125 C 3.832031 -17.445312 5.316406 -18.757812 7.203125 -19.71875 C 9.085938 -20.675781 11.203125 -21.15625 13.546875 -21.15625 C 15.992188 -21.15625 18.144531 -20.675781 20 -19.71875 C 21.863281 -18.757812 23.300781 -17.453125 24.3125 -15.796875 C 25.332031 -14.140625 25.84375 -12.296875 25.84375 -10.265625 C 25.820312 -8.234375 25.269531 -6.378906 24.1875 -4.703125 C 23.101562 -3.023438 21.617188 -1.695312 19.734375 -0.71875 C 17.847656 0.25 15.722656 0.734375 13.359375 0.734375 Z M 13.28125 -4.640625 C 14.375 -4.640625 15.351562 -4.882812 16.21875 -5.375 C 17.09375 -5.875 17.773438 -6.546875 18.265625 -7.390625 C 18.765625 -8.242188 19.015625 -9.191406 19.015625 -10.234375 C 19.046875 -11.296875 18.84375 -12.25 18.40625 -13.09375 C 17.976562 -13.945312 17.347656 -14.613281 16.515625 -15.09375 C 15.679688 -15.570312 14.707031 -15.8125 13.59375 -15.8125 C 12.5 -15.8125 11.515625 -15.5625 10.640625 -15.0625 C 9.765625 -14.570312 9.078125 -13.90625 8.578125 -13.0625 C 8.085938 -12.21875 7.816406 -11.285156 7.765625 -10.265625 C 7.742188 -9.222656 7.957031 -8.269531 8.40625 -7.40625 C 8.863281 -6.550781 9.515625 -5.875 10.359375 -5.375 C 11.210938 -4.882812 12.1875 -4.640625 13.28125 -4.640625 Z M 13.28125 -4.640625 "/></g></g></g><g fill="#000000" fill-opacity="1"><g transform="translate(116.302511, 64.773616)"><g><path d="M 16.25 0.734375 C 14.394531 0.734375 12.734375 0.25 11.265625 -0.71875 C 9.796875 -1.695312 8.65625 -3.019531 7.84375 -4.6875 C 7.039062 -6.351562 6.648438 -8.1875 6.671875 -10.1875 C 6.671875 -12.195312 7.117188 -14.039062 8.015625 -15.71875 C 8.921875 -17.394531 10.144531 -18.71875 11.6875 -19.6875 C 13.238281 -20.664062 14.941406 -21.15625 16.796875 -21.15625 C 18.609375 -21.15625 20.25 -20.679688 21.71875 -19.734375 C 23.195312 -18.785156 24.351562 -17.472656 25.1875 -15.796875 C 26.019531 -14.117188 26.4375 -12.25 26.4375 -10.1875 C 26.4375 -8.1875 25.972656 -6.351562 25.046875 -4.6875 C 24.117188 -3.019531 22.875 -1.695312 21.3125 -0.71875 C 19.757812 0.25 18.070312 0.734375 16.25 0.734375 Z M 1.671875 -20.421875 L 8.75 -20.421875 L 8.75 8.703125 L 1.71875 8.703125 Z M 14.09375 -4.09375 C 15.132812 -4.09375 16.09375 -4.359375 16.96875 -4.890625 C 17.84375 -5.429688 18.53125 -6.171875 19.03125 -7.109375 C 19.539062 -8.046875 19.796875 -9.097656 19.796875 -10.265625 C 19.796875 -11.410156 19.566406 -12.4375 19.109375 -13.34375 C 18.660156 -14.257812 18.035156 -14.976562 17.234375 -15.5 C 16.441406 -16.019531 15.539062 -16.28125 14.53125 -16.28125 C 13.507812 -16.28125 12.554688 -16.015625 11.671875 -15.484375 C 10.785156 -14.953125 10.078125 -14.222656 9.546875 -13.296875 C 9.015625 -12.367188 8.75 -11.347656 8.75 -10.234375 C 8.75 -9.085938 8.972656 -8.046875 9.421875 -7.109375 C 9.878906 -6.171875 10.523438 -5.429688 11.359375 -4.890625 C 12.191406 -4.359375 13.101562 -4.09375 14.09375 -4.09375 Z M 14.09375 -4.09375 "/></g></g></g><g fill="#000000" fill-opacity="1"><g transform="translate(144.063211, 64.773616)"><g><path d="M 16.25 0.734375 C 14.394531 0.734375 12.734375 0.25 11.265625 -0.71875 C 9.796875 -1.695312 8.65625 -3.019531 7.84375 -4.6875 C 7.039062 -6.351562 6.648438 -8.1875 6.671875 -10.1875 C 6.671875 -12.195312 7.117188 -14.039062 8.015625 -15.71875 C 8.921875 -17.394531 10.144531 -18.71875 11.6875 -19.6875 C 13.238281 -20.664062 14.941406 -21.15625 16.796875 -21.15625 C 18.609375 -21.15625 20.25 -20.679688 21.71875 -19.734375 C 23.195312 -18.785156 24.351562 -17.472656 25.1875 -15.796875 C 26.019531 -14.117188 26.4375 -12.25 26.4375 -10.1875 C 26.4375 -8.1875 25.972656 -6.351562 25.046875 -4.6875 C 24.117188 -3.019531 22.875 -1.695312 21.3125 -0.71875 C 19.757812 0.25 18.070312 0.734375 16.25 0.734375 Z M 1.671875 -20.421875 L 8.75 -20.421875 L 8.75 8.703125 L 1.71875 8.703125 Z M 14.09375 -4.09375 C 15.132812 -4.09375 16.09375 -4.359375 16.96875 -4.890625 C 17.84375 -5.429688 18.53125 -6.171875 19.03125 -7.109375 C 19.539062 -8.046875 19.796875 -9.097656 19.796875 -10.265625 C 19.796875 -11.410156 19.566406 -12.4375 19.109375 -13.34375 C 18.660156 -14.257812 18.035156 -14.976562 17.234375 -15.5 C 16.441406 -16.019531 15.539062 -16.28125 14.53125 -16.28125 C 13.507812 -16.28125 12.554688 -16.015625 11.671875 -15.484375 C 10.785156 -14.953125 10.078125 -14.222656 9.546875 -13.296875 C 9.015625 -12.367188 8.75 -11.347656 8.75 -10.234375 C 8.75 -9.085938 8.972656 -8.046875 9.421875 -7.109375 C 9.878906 -6.171875 10.523438 -5.429688 11.359375 -4.890625 C 12.191406 -4.359375 13.101562 -4.09375 14.09375 -4.09375 Z M 14.09375 -4.09375 "/></g></g></g><g fill="#000000" fill-opacity="1"><g transform="translate(171.823912, 64.773616)"><g><path d="M 13.15625 0.734375 C 10.632812 0.734375 8.445312 0.269531 6.59375 -0.65625 C 4.75 -1.59375 3.332031 -2.890625 2.34375 -4.546875 C 1.351562 -6.203125 0.867188 -8.097656 0.890625 -10.234375 C 0.921875 -12.210938 1.441406 -14.035156 2.453125 -15.703125 C 3.472656 -17.367188 4.898438 -18.691406 6.734375 -19.671875 C 8.566406 -20.660156 10.679688 -21.15625 13.078125 -21.15625 C 15.503906 -21.15625 17.617188 -20.648438 19.421875 -19.640625 C 21.234375 -18.628906 22.609375 -17.28125 23.546875 -15.59375 C 24.484375 -13.914062 24.9375 -12.113281 24.90625 -10.1875 C 24.832031 -9.28125 24.753906 -8.65625 24.671875 -8.3125 L 7.6875 -8.3125 C 7.820312 -7.164062 8.398438 -6.234375 9.421875 -5.515625 C 10.453125 -4.804688 11.765625 -4.453125 13.359375 -4.453125 C 14.421875 -4.453125 15.425781 -4.648438 16.375 -5.046875 C 17.332031 -5.453125 18.070312 -5.957031 18.59375 -6.5625 L 23.625 -3.59375 C 22.445312 -2.289062 20.941406 -1.242188 19.109375 -0.453125 C 17.273438 0.335938 15.289062 0.734375 13.15625 0.734375 Z M 18.125 -12.109375 C 18.070312 -12.785156 17.847656 -13.425781 17.453125 -14.03125 C 17.066406 -14.644531 16.515625 -15.128906 15.796875 -15.484375 C 15.078125 -15.835938 14.222656 -16.015625 13.234375 -16.015625 C 11.804688 -16.015625 10.613281 -15.660156 9.65625 -14.953125 C 8.707031 -14.253906 8.09375 -13.304688 7.8125 -12.109375 Z M 18.125 -12.109375 "/></g></g></g><g fill="#000000" fill-opacity="1"><g transform="translate(197.710481, 64.773616)"><g><path d="M 7.03125 -9.21875 C 7.082031 -11.613281 7.5625 -13.722656 8.46875 -15.546875 C 9.382812 -17.367188 10.550781 -18.757812 11.96875 -19.71875 C 13.382812 -20.675781 14.875 -21.15625 16.4375 -21.15625 C 17.976562 -21.15625 19.300781 -20.789062 20.40625 -20.0625 C 21.507812 -19.34375 22.359375 -18.238281 22.953125 -16.75 C 23.554688 -15.269531 23.832031 -13.4375 23.78125 -11.25 L 16.71875 -11.25 C 16.738281 -12.65625 16.472656 -13.757812 15.921875 -14.5625 C 15.378906 -15.375 14.601562 -15.78125 13.59375 -15.78125 C 12.726562 -15.78125 11.957031 -15.519531 11.28125 -15 C 10.601562 -14.476562 10.0625 -13.722656 9.65625 -12.734375 C 9.257812 -11.742188 9.046875 -10.570312 9.015625 -9.21875 Z M 1.953125 -20.421875 L 9.015625 -20.421875 L 9.015625 0 L 1.953125 0 Z M 1.953125 -20.421875 "/></g></g></g><g fill="#000000" fill-opacity="1"><g transform="translate(221.996223, 64.773616)"><g/></g></g><g fill="#000000" fill-opacity="1"><g transform="translate(235.739927, 64.773616)"><g><path d="M 18.28125 -16.875 L 14.328125 0 L 5.03125 0 L -0.390625 -27.140625 L 6.828125 -27.140625 L 10.109375 -7.296875 L 14.640625 -27.140625 L 21.515625 -27.140625 L 26.046875 -7.421875 L 29.671875 -27.140625 L 37.21875 -27.140625 L 31.125 0 L 22.375 0 Z M 18.28125 -16.875 "/></g></g></g><g fill="#000000" fill-opacity="1"><g transform="translate(271.895215, 64.773616)"><g><path d="M 13.359375 0.734375 C 10.984375 0.734375 8.863281 0.25 7 -0.71875 C 5.144531 -1.695312 3.6875 -3.023438 2.625 -4.703125 C 1.570312 -6.378906 1.0625 -8.222656 1.09375 -10.234375 C 1.113281 -12.265625 1.664062 -14.113281 2.75 -15.78125 C 3.832031 -17.445312 5.316406 -18.757812 7.203125 -19.71875 C 9.085938 -20.675781 11.203125 -21.15625 13.546875 -21.15625 C 15.992188 -21.15625 18.144531 -20.675781 20 -19.71875 C 21.863281 -18.757812 23.300781 -17.453125 24.3125 -15.796875 C 25.332031 -14.140625 25.84375 -12.296875 25.84375 -10.265625 C 25.820312 -8.234375 25.269531 -6.378906 24.1875 -4.703125 C 23.101562 -3.023438 21.617188 -1.695312 19.734375 -0.71875 C 17.847656 0.25 15.722656 0.734375 13.359375 0.734375 Z M 13.28125 -4.640625 C 14.375 -4.640625 15.351562 -4.882812 16.21875 -5.375 C 17.09375 -5.875 17.773438 -6.546875 18.265625 -7.390625 C 18.765625 -8.242188 19.015625 -9.191406 19.015625 -10.234375 C 19.046875 -11.296875 18.84375 -12.25 18.40625 -13.09375 C 17.976562 -13.945312 17.347656 -14.613281 16.515625 -15.09375 C 15.679688 -15.570312 14.707031 -15.8125 13.59375 -15.8125 C 12.5 -15.8125 11.515625 -15.5625 10.640625 -15.0625 C 9.765625 -14.570312 9.078125 -13.90625 8.578125 -13.0625 C 8.085938 -12.21875 7.816406 -11.285156 7.765625 -10.265625 C 7.742188 -9.222656 7.957031 -8.269531 8.40625 -7.40625 C 8.863281 -6.550781 9.515625 -5.875 10.359375 -5.375 C 11.210938 -4.882812 12.1875 -4.640625 13.28125 -4.640625 Z M 13.28125 -4.640625 "/></g></g></g><g fill="#000000" fill-opacity="1"><g transform="translate(298.679804, 64.773616)"><g><path d="M 7.03125 -9.21875 C 7.082031 -11.613281 7.5625 -13.722656 8.46875 -15.546875 C 9.382812 -17.367188 10.550781 -18.757812 11.96875 -19.71875 C 13.382812 -20.675781 14.875 -21.15625 16.4375 -21.15625 C 17.976562 -21.15625 19.300781 -20.789062 20.40625 -20.0625 C 21.507812 -19.34375 22.359375 -18.238281 22.953125 -16.75 C 23.554688 -15.269531 23.832031 -13.4375 23.78125 -11.25 L 16.71875 -11.25 C 16.738281 -12.65625 16.472656 -13.757812 15.921875 -14.5625 C 15.378906 -15.375 14.601562 -15.78125 13.59375 -15.78125 C 12.726562 -15.78125 11.957031 -15.519531 11.28125 -15 C 10.601562 -14.476562 10.0625 -13.722656 9.65625 -12.734375 C 9.257812 -11.742188 9.046875 -10.570312 9.015625 -9.21875 Z M 1.953125 -20.421875 L 9.015625 -20.421875 L 9.015625 0 L 1.953125 0 Z M 1.953125 -20.421875 "/></g></g></g><g fill="#000000" fill-opacity="1"><g transform="translate(322.965545, 64.773616)"><g><path d="M 1.953125 -29.125 L 9.015625 -29.125 L 9.015625 0 L 1.953125 0 Z M 1.953125 -29.125 "/></g></g></g><g fill="#000000" fill-opacity="1"><g transform="translate(334.132297, 64.773616)"><g><path d="M 10.859375 0.734375 C 9.003906 0.734375 7.34375 0.257812 5.875 -0.6875 C 4.40625 -1.632812 3.253906 -2.945312 2.421875 -4.625 C 1.585938 -6.300781 1.171875 -8.171875 1.171875 -10.234375 C 1.171875 -12.234375 1.625 -14.066406 2.53125 -15.734375 C 3.445312 -17.398438 4.691406 -18.71875 6.265625 -19.6875 C 7.835938 -20.664062 9.550781 -21.15625 11.40625 -21.15625 C 13.25 -21.15625 14.898438 -20.675781 16.359375 -19.71875 C 17.816406 -18.757812 18.945312 -17.445312 19.75 -15.78125 C 20.5625 -14.113281 20.96875 -12.265625 20.96875 -10.234375 C 20.914062 -8.222656 20.441406 -6.378906 19.546875 -4.703125 C 18.648438 -3.023438 17.4375 -1.695312 15.90625 -0.71875 C 14.382812 0.25 12.703125 0.734375 10.859375 0.734375 Z M 13.078125 -4.140625 C 14.066406 -4.140625 15.003906 -4.40625 15.890625 -4.9375 C 16.773438 -5.46875 17.488281 -6.195312 18.03125 -7.125 C 18.582031 -8.050781 18.875 -9.085938 18.90625 -10.234375 C 18.90625 -11.378906 18.671875 -12.421875 18.203125 -13.359375 C 17.734375 -14.296875 17.085938 -15.023438 16.265625 -15.546875 C 15.441406 -16.066406 14.523438 -16.328125 13.515625 -16.328125 C 12.441406 -16.328125 11.472656 -16.054688 10.609375 -15.515625 C 9.753906 -14.984375 9.066406 -14.25 8.546875 -13.3125 C 8.023438 -12.375 7.765625 -11.332031 7.765625 -10.1875 C 7.765625 -9.039062 8 -8.003906 8.46875 -7.078125 C 8.9375 -6.160156 9.570312 -5.441406 10.375 -4.921875 C 11.1875 -4.398438 12.085938 -4.140625 13.078125 -4.140625 Z M 18.859375 -29.125 L 25.921875 -29.125 L 25.96875 0 L 18.90625 0 Z M 18.859375 -29.125 "/></g></g></g><g fill="#000000" fill-opacity="1"><g transform="translate(361.542339, 64.773616)"><g/></g></g><g clip-path="url(#65f79b921d)"><g clip-path="url(#0a19fe69fc)"><path fill="#fd287f" d="M 25.582031 39.625 L 51.644531 39.625 L 51.644531 57.902344 L 25.582031 57.902344 Z M 25.582031 39.625 " fill-opacity="1" fill-rule="nonzero"/></g></g><g fill="#000000" fill-opacity="1"><g transform="translate(4.08553, 62.976752)"><g><path d="M 2.421875 -27.140625 L 9.484375 -27.140625 L 9.484375 0 L 2.421875 0 Z M 2.421875 -27.140625 "/></g></g></g></svg>